<?xml version="1.0" encoding="UTF-8"?>
<svg id="Layer_1" xmlns="http://www.w3.org/2000/svg" version="1.1" viewBox="0 0 1122 800">
  <!-- Generator: Adobe Illustrator 29.4.0, SVG Export Plug-In . SVG Version: 2.1.0 Build 152)  -->
  <defs>
    <style>
      .st0 {
        fill: #7ec4b6;
      }

      .st1 {
        fill: #67b8a9;
      }

      .st2 {
        fill: #448a7d;
      }

      .st3 {
        fill: #fee4d6;
      }

      .st4 {
        fill: #59a496;
      }

      .st5 {
        fill: #eacdb0;
      }

      .st6 {
        fill: #534741;
      }

      .st7 {
        fill: #516784;
        isolation: isolate;
        opacity: .1;
      }

      .st8 {
        fill: #5aa0a3;
      }

      .st9 {
        fill: #41352b;
      }

      .st10 {
        fill: #fff;
      }

      .st11 {
        fill: #514943;
      }

      .st12 {
        fill: #d1e0da;
      }

      .st13 {
        fill: #c7b299;
      }

      .st14 {
        fill: #545150;
      }

      .st15 {
        fill: #9299a2;
      }

      .st16 {
        fill: #8c6239;
      }

      .st17 {
        fill: #333;
      }

      .st18 {
        fill: #998675;
      }

      .st19 {
        fill: #ebceb1;
      }

      .st20 {
        fill: #667482;
      }
    </style>
  </defs>
  <g id="shadow">
    <path class="st7" d="M987.6,650.2H125c-27.3,0-49.6,8.9-49.6,19.9h0c0,7.6,10.7,14.2,26.3,17.5H25.8c-27.3,0-49.6,8.9-49.6,19.9h0c0,10.9,22.3,19.9,49.6,19.9h26.5c-7.4,3.5-11.9,8-11.9,12.9v7.9c0,10.9,22.3,19.9,49.6,19.9h849.7c27.3,0,49.6-8.9,49.6-19.9v-7.9c0-10.9-22.3-19.9-49.6-19.9l-57.8.4c4.4,0,11.5-1.4,16.3-4.2,8.4-4.9,8.8-12.4,4.7-18.5-2.7-4-6.9-7.2-17.5-8.4l102.1.3c27.3,0,49.6-8.9,49.6-19.9h0c0-10.9-22.3-19.9-49.6-19.9Z"/>
  </g>
  <g id="object">
    <g>
      <polygon class="st19" points="286.5 317.3 281.9 326.2 295.6 335.5 304.7 330.4 305.1 321.5 297.2 321.5 298 319.9 300.6 319.1 299.8 316.6 286.5 317.3"/>
      <polygon class="st15" points="209.7 220.1 238.3 282.7 290.8 315.2 284.4 329 215.6 301 165.1 219 209.7 220.1"/>
    </g>
    <g>
      <path class="st18" d="M141.9,695l-.8,9.1-6,7.4s-1.7,11.1,1.6,13c3.3,1.9,54.3,8,54.3,8l5.3-7.8-4.2-8.7-27-12.3-9.3-10.3-13.9,1.7Z"/>
      <path class="st18" d="M195.3,675.4l-.8,9.1-5.9,7.4s-1.7,11.1,1.5,13c3.2,1.9,53.4,7.9,53.4,7.9l5.2-7.8-4.1-8.7-26.5-12.3-9.1-10.3-13.7,1.7Z"/>
      <g>
        <path class="st20" d="M133.9,517.3c4.4,9.2,8.3,17.6,9,29.4.7,11.7-1.5,23.3-3.1,34.9-5.7,40.1-5.2,80.7-4.6,121.2,14,.6,27.9.9,41.9.9,2.4,0,5.1-.1,6.6-1.9,1.6-1.8,1.4-4.5,1.2-6.8-3.2-28.8-3-57.8-2.5-86.7.2-14.2.7-26.4,3.6-40.1,2.9-13.6,2.4-27.8,1.4-41.6-2.3-33.9-9.2-67.1-11-100.9-.3-6.1-.9-12.7-4.9-17.4-4.8-5.6-13-6.8-20.4-6.8-20.3,0-43.2,3.2-44.3,27.9-.3,8.2,1.8,16.3,4.1,24.2,5.3,18.1,11,36.3,18.3,53.7,1.5,3.6,3.1,6.9,4.6,10.2Z"/>
        <path class="st20" d="M190.5,501.8c4.2,9.4,7.9,18,8.1,29.9.1,11.7-2.8,23.2-5.1,34.7-8.1,39.7-9.6,80.4-11.1,120.8,14.8,1.3,29.6,2.3,44.5,2.9,2.5.1,5.4.1,7.1-1.6,1.8-1.7,1.7-4.4,1.6-6.8-2.4-35.9-5.1-72-2.6-107.9,1-13.7,2.7-27.4,3.5-41.2,1.5-26.8-.6-53.6-3.9-80.2-2-16.4.8-51.5-15.7-61.4-7.5-4.5-17-5.2-25.8-3.8-4.5.7-8.9,1.9-12.7,4.2-7.3,4.5-11.1,12.8-11.9,21-.8,8.2,1.1,16.4,3.1,24.4,4.7,18.3,9.8,36.8,16.6,54.6,1.4,3.7,2.9,7.1,4.4,10.4Z"/>
        <path class="st15" d="M117.8,193.4c-10.7,6.3-18.8,16-21.6,30.4-12.7,64.9-4.8,131.8,3,197.4.5,4.5,1.4,9.5,5,12.1,4.1,3,9.8,1.6,14.7.2,38.5-11.3,78-19.4,117.8-24.2-2.4-48.2-7.1-96.4-14-144.2-1.9-12.9-3.9-25.9-8.8-38.1-10.8-27.1-29.1-46.4-59.7-43.9-13,1.1-26,4.1-36.5,10.3Z"/>
        <g>
          <path class="st3" d="M184.9,129.8c.5,8.3.9,17.1-3.2,24.2-3.5,6.1-9.8,10-14.6,15.2-2.9,3.1-5.4,7.2-5.9,11.6-.5,4.3,1.8,7.9,1.7,12.2,0,.4,0,.8-.2,1.2-.2.4-.6.6-.9.8-1.9,1-4.2,1.1-6.4,1.1-2.6,0-5.4.4-8,0-3.4-.4-2.7-1.1-3-4.5-.5-5.1-1.2-10.2-2.8-15.1-3.4-10.1-10.6-18.7-12.7-29.2-2.3-11.7,1.1-23.1,4.8-34.2,1.7-5,3.5-10,6.9-14,7.5-8.7,25-11.5,33.4-2.6,10,10.6,10.1,19.3,11,33.3Z"/>
          <path class="st16" d="M182.3,124.1c5.4,7.4,6.3,17.9,2.2,26.2,6.3-4.4,9.3-12.2,10.6-19.8.7-4.2,1-8.4.5-12.6-1.5-13.3-12-25.5-25.3-27.3-8.8-1.2-8.7,10-5.3,15.4,4.5,7.2,12.4,11.4,17.3,18.2Z"/>
          <path class="st16" d="M159.1,83.6c-4.9-2.3-10.6-2.5-16-2-7.4.6-22.4,2.8-31.2,8.4-5-10.6-19.3-18.7-29.8-13.2-6.1,3.2-8.8,10.3-6,15.8.7,1.4,1.7,2.7,3,3.7,1.1.9,2.4,1.6,3.4,2.6,3.6,3.7.3,9-2.4,13.3-3,4.8-5,9.9-6,15.2-.6,3-.8,6.1.6,8.9s4.7,5.2,8.4,5c6.7-.3,8-6,8.4-11.1.4-5.9,1.4-11.2,4.1-16.7,1-2,2.3-4.2,4.5-4.7.4-.1.8-.2,1.3-.2-1.5,5-2.3,10-1.5,15.5,1.5,11,5.6,21.8,12.4,30.6,6.7,8.8,16.2,15.7,26.9,18.7.8-6.8-6.4-11.9-7.7-18.6-.7-3.6.4-7.4,2.3-10.6s4.5-5.8,7.1-8.4c4.5-4.5,9-9,13.5-13.5,3.7-3.7,7.4-7.4,10.1-11.8,5.6-9,5.3-21.6-5.4-26.7Z"/>
        </g>
      </g>
    </g>
    <g>
      <polygon class="st9" points="569.8 727.9 569.8 737.6 544.9 750 532.5 737.6 544.9 725.2 546.5 725.2 546.9 727.9 569.8 727.9"/>
      <polygon class="st9" points="630.9 725.2 632.7 725.2 645.1 737.6 632.7 750 607.8 737.6 607.8 727.9 630.7 727.9 630.9 725.2"/>
      <g>
        <path class="st20" d="M630.6,360.2c-3.3-16.5-5.8-31.8-6.1-40.1-.7-24.9-3.8-107.2-3.8-107.2l-15.2-31.5h-2.8c.2,0,.4,0,.6,0-.7,0,.3-6.1.6-6.6,13.2-.5,30.3,7,38.6,17.4,6.2,7.7,9.8,17.1,13.4,26.3,10.1,26,14.6,50.1,19.6,77.4,3.2,17.4,6.2,34.8,8.5,52.1,2.6,19.2,4.4,38.3,4.9,57.3,0,2.1.5,8,.7,15,.5,14.7.2,34.4-5.9,35.1-1.1.1-2.2-.4-3.2-.9-7.8-3.9-14-8.9-20.9-13.3l-.4-76.7-28.6-4.3Z"/>
        <path class="st20" d="M490.7,439c1.6-16.3,3.2-32.6,5.1-48.9,3.9-32.4,9.3-64.8,18.4-96.2,3.5-12,7.5-23.8,11.5-35.7,4.9-14.4,9.7-28.8,14.6-43.2,6-17.9,16.2-30.5,34.1-36.8,3.2-1.1,6.5-2,10-2.6,0,.4.2.7.2,1.1.2,1.7.7,3.6,1.8,4.9h-11.7c0,.1-33.1,117.7-34.3,137.9-.5,7.7-2,24.5-3.7,42.2l-18,2.7-.8,67.8c-1,.3-2,.6-3,.8-5.7,1.5-10.3,5.8-15.1,9.1-7,4.9-10.1,6.8-9.1-3.2Z"/>
        <path class="st20" d="M536.7,361.8c-2.7,28-5.8,58.3-5.8,58.3,0,0,14.5.3,35.5,1.9-1.6,0-3.1,0-4.7,0-14.6-.1-29.8,6.2-43.8,10.3l.8-67.8,18-2.7Z"/>
        <path class="st20" d="M634.7,430.6c10,.5,11.3-1.4,11.3-1.4,0,0-9-36.9-15.4-69l28.6,4.3.4,76.7c-2.4-1.6-4.9-3-7.7-4.3-5.4-2.6-11.2-4.6-17.2-6.2Z"/>
        <path class="st14" d="M517.9,432.2c14-4.1,29.1-10.4,43.8-10.3,1.6,0,3.1,0,4.7,0,1.3,0,2.6.2,4,.3,9.8.8,20.8,1.8,32.3,3.2.6,0,1.1.1,1.7.2,14.7,3.2,24.2,4.4,30.4,4.8,6,1.6,11.8,3.6,17.2,6.2,2.7,1.3,5.2,2.8,7.7,4.3v16c0,0-27.9,271.1-27.9,271.1h-23v2.8h-.1l-25.3-181.9v-1c-.1,0-13.9,182.9-13.9,182.9h-.1v-2.8h-23.1l-29.3-203.7,1.1-92.4Z"/>
        <path class="st10" d="M530.8,420.1s14.5.3,35.5,1.9c1.3,0,2.6.2,4,.3,9.8.8,20.8,1.8,32.3,3.2.6,0,1.1.1,1.7.2,14.7,3.2,24.2,4.4,30.4,4.8,10,.5,11.3-1.4,11.3-1.4,0,0-9-36.9-15.4-69-3.3-16.5-5.8-31.8-6.1-40.1-.7-24.9-3.8-107.2-3.8-107.2l-15.2-31.5h-2.8c-3.9.5-7.8,1-11.6,1.4-1,.1-2,.2-3,0-.5-.2-.9-.4-1.3-.7-.1-.1-.3-.3-.4-.4h-11.7c0,.1-33.1,117.7-34.3,137.9-.5,7.7-2,24.5-3.7,42.2-2.7,28-5.8,58.3-5.8,58.3Z"/>
      </g>
    </g>
    <g>
      <path class="st6" d="M565.1,106.5c-2.9,5.9-4.2,12.7-4.1,19.3,0,1.8,0,3.8-1.4,4.9-1.4,1.2,0,3.6-1.2,2.1-1.2-1.4-5.4-6.4-5.6-8.3-.6-4.4-.8-8.8-.7-13.3.2-3.8.7-7.9,3.1-10.9,1.4-1.8,3.3-3.1,5.1-4.4,2.7-1.9,5.5-3.7,8.7-4.5,5.5-1.3,8.9.5,4.3,4.7-3.3,3-6.1,6.3-8.1,10.4Z"/>
      <path class="st5" d="M603.2,180c-7.6,1.1-15.1,2.2-22.7,3.4-1.5-6.6-2.5-13.3-3-20.1-6.7-.8-14.5-2.6-17.2-9.5-.8-2.2-1-4.6-1.1-6.9-.6-9.7-1.1-19.5-1.7-29.2-.2-3.4-.4-6.8.6-10,1.7-5.6,6.6-9.1,11.5-11.5,12.4-5.9,27.2-6.5,39.3.4,3.2,1.8,6.3,4.2,8.2,7.6,3,5.2,3,11.8,2.9,18.1-.1,5.7-.2,11.5-.3,17.2-.1,6.6-.7,14.2-5.5,17.9-2.6,2-6,2.5-8.2,5-3.8,4.4-1.6,11.8-2.8,17.8Z"/>
      <path class="st6" d="M557.8,152.5c1.5,6,4.7,11.7,9.7,14.8,5.7,3.6,12.6,3.5,19.2,3.3,3.6-.1,7.2-.2,10.7-.3,9.1-.3,18-1.9,22.2-11.9,1.9-4.6,2.3-9.8,1.8-14.8-.2-1.4-.4-2.8-1.1-4-.7-1.2-2-2-3.2-1.8-1.6.3-2.5,2.1-3.4,3.5-2.1,3.1-6,5-9.3,3.5-1-.4-1.8-1.1-2.7-1.8-.4-.3-.7-.6-1.1-.8-3.5-2.6-7.8-3.7-12-4-3.6-.3-9-1.4-11.5,1.9-1.5,1.9-2.9,3.8-4.4,5.7-.6.8-1.2,1.6-2,2.1-.8.5-1.8.8-2.8.8-2.4.2-5.2-.8-6.2-3.3-.4-1.1-.4-2.3-.5-3.4-.1-1.2-.3-2.4-1.1-3.2-2.8-3.2-3.4,2.1-3.4,4,0,3.2.3,6.4,1.1,9.5ZM582.5,152.9c3,1.8,6,1.7,9.1.5,1.6-.6,2.4,2.2.8,2.7-3.8,1.4-7.6,1.4-11.1-.7-1.5-.9-.3-3.5,1.2-2.6Z"/>
      <path class="st6" d="M552.7,90.2c-.8-2.3-1.3-4.7-1.8-7.1,2.3.7,4.7.8,7,.2,0-1.4-.1-2.8-.2-4.2,0-1.2,15.4-2.8,16.7-3,11.8-1.6,22.5-3.1,33.5,2.8,9.4,5,15.7,12.9,17.6,23.6,1.9,10.1-.8,23.7-6.1,32.5-.1-2.7,1.1-9.2.3-11.8-.5-2.6-1.5-5-2.9-7.3-2.7-4.5-6.6-8.2-11.1-10.7-7.1-4-15.3-6-23.4-6.7-7.4-.7-16.4-1.1-23.6,1.2-3.4,1.1-4,2.1-6.3-1.4-.4-.6-3.7-7.8-3.4-7.9,1.2,0,2.5-.2,3.7-.2Z"/>
    </g>
    <circle class="st4" cx="530.1" cy="525" r="234"/>
    <circle class="st8" cx="339" cy="203.1" r="123.9" transform="translate(-44.3 299.2) rotate(-45)"/>
    <circle class="st1" cx="137.6" cy="384.5" r="102.5"/>
    <g>
      <polygon class="st5" points="659.9 341.2 656.6 352.2 647.7 356.7 647.7 359.1 650.6 359.3 644.3 365.2 643.4 372.2 650.4 378.7 660.1 379.7 665.6 372.2 666.9 361 672.1 346.2 659.9 341.2"/>
      <path class="st20" d="M653.2,345.7c1.1-12.5,2.3-25.1,3.4-37.6.7-8.1,1.6-16.2,2.2-24.3.7-10.2-6.3-10.9-11.2-19.6-10.9-19.7-22.2-41.3-18.5-63.5.4-2.2.9-4.5,2.4-6.2,2.8-3.2,8-3.3,11.7-1.3s6.3,5.6,8.8,9.1c13.2,18.9,30.1,40,38.8,61.4,3.9,9.7-2.4,24.4-4.7,34.6-4.7,20.6-9.3,41.1-14,61.7l-18.9-14.4Z"/>
    </g>
    <g>
      <path class="st10" d="M527.8,405.5c1.2,2.2,2.2,4.5,3.5,6.6,4.7,8,9.3,16.1,13.8,24.2l-15.3,9c-9.1,5.4-9.3,11.8-.5,14.4l24.9,7.2c8.8,2.6,23.3,6.8,32.1,9.4l24.9,7.2c8.8,2.6,17.7-2.7,19.8-11.6l5.7-25.2c2-9,5.3-23.7,7.4-32.6l5.7-25.2c2-9-3.7-11.9-12.8-6.6l-15.6,9.2c-5.7-9.7-11.4-19.4-13.6-23-5-8.1-14.7-14.2-33.6-14.1-14.1,0-51.5.3-75.1.4,3.9,6.8,7.8,13.7,11.7,20.5,5.7,10.1,11.5,20.2,17.2,30.2Z"/>
      <path class="st10" d="M411.9,439.2l50.1,29.4c7.4,4.4,17.2,1.9,21.7-5.5,0,0,28.3-46.5,30.9-50.7,1.9-3.2,4.1-4.4,6.1-3.9.7.2,1.3-.6.9-1.2l-29.9-52.4c-8.2,0-14.7,0-18.1.1-13,0-28,2.3-38.4,18.3-8.1,12.2-28.5,44.8-28.5,44.8-4.6,7.3-2.2,16.9,5.2,21.2Z"/>
      <path class="st10" d="M626.7,588.5c-2.5,0-5-.1-7.5-.2-9.3-.1-18.6-.4-27.9-.7l.2-17.7c.1-10.6-5.3-14.1-12.1-7.9l-19.1,17.5c-6.8,6.2-17.9,16.4-24.6,22.7l-19.1,17.5c-6.8,6.2-6.9,16.5-.3,22.9l18.6,18c6.6,6.4,17.5,16.8,24.1,23.2l18.6,18c6.6,6.4,12.1,3,12.3-7.6l.2-18.1c11.3.2,22.5.3,26.7.2,9.5-.1,19.8-5.2,29.5-21.5,7.2-12.1,26.4-44.2,38.5-64.5-7.9-.2-15.7-.4-23.6-.6-11.6-.3-23.2-.9-34.8-1.2Z"/>
      <path class="st10" d="M702.3,526.3c-6.3-13.2-23.6-47.6-23.6-47.6-3.9-7.7-13.3-10.6-20.8-6.5l-51.1,27.7c-7.6,4.1-10.5,13.7-6.5,21.4,0,0,25.1,48.2,27.4,52.7,1.7,3.3,1.7,5.8.2,7.3-.5.5-.2,1.4.5,1.4l60.3,1.6c4.2-7,7.6-12.7,9.3-15.5,6.7-11.2,12.5-25.1,4.3-42.3Z"/>
      <path class="st10" d="M415.1,583.7c1.2-2.2,2.7-4.2,3.9-6.4,4.5-8.1,9.1-16.2,13.8-24.3l15.5,8.5c9.3,5.1,14.9,1.9,12.6-7l-6.5-25.1c-2.3-8.9-6.1-23.5-8.4-32.4l-6.5-25.1c-2.3-8.9-11.4-13.9-20.1-11l-24.6,8c-8.7,2.8-23.1,7.5-31.8,10.3l-24.6,8c-8.8,2.8-8.3,9.3.9,14.4l15.9,8.7c-5.5,9.9-10.9,19.8-12.8,23.5-4.4,8.4-4.7,19.9,5.1,36.1,7.3,12.1,26.6,44.1,38.8,64.4,3.9-6.8,7.8-13.7,11.7-20.5,5.7-10.1,11.5-20.2,17.2-30.3Z"/>
      <path class="st10" d="M487.1,592.1s-54.4-.5-59.4-.6c-3.7,0-5.9-1.2-6.5-3.2-.2-.7-1.1-.8-1.5-.2l-29.8,52.5c4.2,7,7.6,12.6,9.3,15.5,6.7,11.2,16.3,22.8,35.3,23.7,14.6.7,53.1,1.6,53.1,1.6,8.6.2,15.6-6.7,15.6-15.3l-.3-58.1c0-8.6-7.2-15.8-15.8-15.8Z"/>
    </g>
    <polygon class="st10" points="70.2 335.3 115.8 319.3 181.5 392.1 148 403.9 199.3 464.2 97.1 401.7 133.2 385.4 70.2 335.3"/>
    <g>
      <path class="st10" d="M334.8,213.8s-15.3,24.8-13.3,86.2h16.1s-5.2-53.6,5.7-83.9l-8.5-2.3Z"/>
      <path class="st10" d="M415,122.2s-54.5,10.1-75,35.3c-20.5,25.2-3.4,61.3-3.4,61.3,0,0,38.8,9.3,59.3-15.9,20.5-25.2,19.2-80.7,19.2-80.7ZM346.7,216.1c-3.7-.5-5.9-1-5.9-1,0,0-1-2.1-2.2-5.6l51.5-55.2-43.4,61.7Z"/>
      <path class="st10" d="M314.1,190.4c-22.6-18.2-72.1-16.9-72.1-16.9,0,0,9.2,48.6,31.7,66.9,22.6,18.2,54.7,2.9,54.7,2.9,0,0,8.2-34.7-14.4-52.9ZM323.9,238.6s-1.9.9-5,2l-49.4-45.8,55.2,38.6c-.4,3.3-.9,5.3-.9,5.3Z"/>
    </g>
    <g>
      <path class="st15" d="M76.5,285.8c6.5-4.6,15.8-3.8,21.6,1.9,1.8,1.7,3.3,4.6,2,6.9-.5.9-1.4,1.5-2.3,2-5.2,3.2-21.7,15.4-27.4,11-6.6-5.2,1.4-18.5,6-21.8Z"/>
      <path class="st19" d="M96.2,295.1c-3.6-5-10.6-5-15.3-1.5-3.9,2.9-5.1,8.5-2.6,12.7,1.8,3.1,5.4,4.3,8.7,3,5.1-2,4.5-6,4.8-10.6.8,0,1.5.3,2.2.6s1.5.4,2.2.1c2.2-.8.8-3.2,0-4.3Z"/>
    </g>
    <g>
      <path class="st12" d="M1057.6,285c5.3,2.1,11.6,5.1,12.4,11,.7,5-2.9,9.4-6.3,13-3.9,4.2-8.4,8.6-14,9-2.9.2-5.8-.7-8.5-1.7-28.1-9.8-55.3-22.6-81-38.1-13.1-7.9-61.5-44-28.1-57.9,13.1-5.5,24.6,7,34.7,13.9,13.7,9.4,27.7,18.5,42,26.8,15.7,9.1,32,17.3,48.8,23.9Z"/>
      <g>
        <g>
          <polygon class="st19" points="926.5 424.5 905.5 575.8 913 685.1 897.7 690.4 884 589.4 854.7 404.9 926.5 424.5"/>
          <polygon class="st11" points="897.7 693.5 896 704.8 899.8 726.3 912.5 725.1 914.9 693.3 913 688.1 897.7 693.5"/>
        </g>
        <g>
          <polygon class="st19" points="802.6 420 809.4 548.3 838 727.7 853.5 727.5 846.6 561.1 866.7 407.8 802.6 420"/>
          <polygon class="st11" points="838.2 724.6 818.4 739.1 820.9 750 857.2 741.4 854.2 725.7 838.2 724.6"/>
        </g>
        <polygon class="st13" points="799.2 439.2 799.8 588.2 818.1 688.6 859.6 681.9 858.4 565.8 867 438.3 862.7 419 802.7 425.8 799.2 439.2"/>
        <polygon class="st13" points="872.9 568 885.7 673.6 921.8 668 913.6 567.4 927 438.8 919.1 404 858.4 414.2 872.9 568"/>
        <g>
          <path class="st5" d="M944.9,155.3c-2.8-26.2-36.1-42.3-50.3-15.6-4.3,8-7.7,16.8-7.9,25.9-.2,9.1,3.3,18.6,10.5,24,0,0,0,0,.1,0-.8,2.2-1.6,4.4-2.4,6.6-.2.5-.3,1-.2,1.5.2.5.8.8,1.3,1,2.6,1,5.2,2,7.7,2.9,1.3.5,2.6,1,4,.8,3-.3,4.9-3.5,5.6-6.4.2-.7.3-1.4.5-2.1,16.9-2.1,32.8-21.5,31-38.6Z"/>
          <g>
            <path class="st17" d="M893.8,147.5c-4.9,5.8-5.9,13.6-6,21,0,7.2-1.9,14-1.4,21.2-.9,1-2.5,0-3.4-1-5.4-5.6-10.7-11.3-16-17.1-.5-.6-1.1-1.2-1.3-1.9-.3-1-.1-2,.1-3,4.4-19.4,14.3-32.5,27.6-46.3,6.5-6.7,22-12.8,28.7-2.6,1.5,2.3,1.8,5.3,1.8,8.1,0,1.7,0,3.4-.6,4.9-2.5,6.2-8.4,4.9-13.4,6.2-6.2,1.6-12,5.5-16.1,10.4Z"/>
            <path class="st17" d="M936.4,167.3c-.9,5.6-3.2,11.8-5.7,16.9-.9,1.8-5.1,5.5-5.4,6.7-.9,3.6,5.3,13.2,6.7,16.7,12.7-4.7,25.3-9.4,38-14,1-.4,2-.8,2.6-1.6.6-.7.8-1.7,1-2.6,3.5-18.3,1.3-35.7-3.2-53.4-4.5-17.8-18.1-33.7-36.9-35.4-15.1-1.4-27.3,8.1-24.2,24.4,2.3,12.3,16.5,17,23.2,26.2,4.2,5.8,4.8,11,3.9,16.2Z"/>
          </g>
        </g>
        <path class="st12" d="M928.4,204.5c.3.1.6.3.9.5,13.6,7.3,21.9,32.8,26.5,47.8,12.1,38.7,14.6,77.6,11,118.1-2,21.8-4.9,43.5-8.3,65.1-.9,6-13,58.9-10.4,60.6-26.7-17-53.9-33.3-83.1-44.8s-60.7-1.3-91.9,1.4c17.7-66.9,39.8-151.4,67.2-214.6,3.3-7.6,5.9-15.7,10.2-22.7,5-8.1,11.2-9.8,19.4-13.9,2.8-1.4,5.6-2.8,8.5-3.6,15.6-4.4,35.6-1.1,49.9,6.3Z"/>
      </g>
      <circle class="st2" cx="1012" cy="229.9" r="77" transform="translate(133.9 782.9) rotate(-45)"/>
      <circle class="st0" cx="888.4" cy="427.5" r="115.3" transform="translate(-42.1 753.4) rotate(-45)"/>
      <path class="st10" d="M889.2,336s-53.2,57.6-53.2,105.6,36.8,59.4,53.2,59.4,53.2-11.4,53.2-59.4-53.2-105.6-53.2-105.6ZM878.2,489.1c-54.3-14.4-33.6-80.9-9.1-112.6,3.1-3.9,8.5,1.6,5.5,5.5-21.8,28.2-32.9,83,7.5,100.4,4.6,2,.9,8-3.9,6.7Z"/>
      <g>
        <path class="st10" d="M1033.1,258.2h-35.4c-2.1,0-3.7,1.4-3.7,3v11.3c0,.6.2,1.2.6,1.7l.3.4h-.3l8.5,10.4v2.1c0,2.1,2.1,3.9,4.7,3.9h15.2c2.6,0,4.7-1.7,4.7-3.9v-2.1l8.5-10.4h-.3l.3-.4c.4-.5.6-1.1.6-1.7v-11.3c0-1.7-1.7-3-3.7-3Z"/>
        <path class="st10" d="M1044.1,231.7c-.2,0-.4,0-.6.1-4,1.5-7.6,3.2-11.3,5.4-2,1.2-5.1,2.5-6.2,4.8-.3.6-.4,1.3-.4,2-.3,3.5-.4,7.1-.5,10.7l9.5.2c.3-2.4.6-4.9.8-7.3,0-.3,0-.7.3-.9.2-.3.7-.5,1.1-.6,2.3-.8,4.5-1.6,6.8-2.4.7-.2,1.4-.5,1.8-1.1.3-.4.3-1,.4-1.5.2-2.7,0-5.3-.5-8-.1-.6-.4-1.4-1-1.4Z"/>
        <path class="st10" d="M1048.3,209.6c-.1-.2-.4-.2-.6-.2-1.1,0-2.3.3-3.4.5-7.6,1.8-14.9,4.9-22.2,7.8-10,4.1-20.1,8.2-30.2,12-1.3.5-3.1,1-4.1,2.1-.5.1-.8.8-.9,1.4-.5,2.6-.7,5.3-.5,8,0,.5,0,1.1.4,1.5.4.6,1.1.9,1.8,1.1,2.3.8,4.5,1.6,6.8,2.4.4.1.8.3,1,.6.2.3.2.6.3.9.3,2.4.6,4.9.8,7.3l9.5-.2c0-3.6-.2-7.1-.5-10.7,0-.7-.1-1.4-.4-2-1.1-2.2-4.2-3.5-6.2-4.8-.2-.1-.4-.2-.6-.4,3.3-1,6.5-2.3,9.7-3.5,9-3.3,18.1-5.8,27.2-8.7,2.6-.8,5.2-1.7,7.7-2.5,2.3-.8,4.2-1,4.4-3.8.2-2.9.1-5.7,0-8.6,0-.1,0-.3,0-.4Z"/>
        <path class="st10" d="M1051.9,196.3c0-1,0-2-.1-3,0-.9,0-1.8-.3-2.7-.3-.9-.8-1.7-1.5-2.2-1.3-.8-2.5,0-3.8.3-1.7.5-3.4,1.1-5.1,1.6-1,.3-1.9.7-2.9,1-5.8,2.1-11.5,4.7-17.2,7.1-2.4,1-4.8,2-7.3,3-8.9,3.4-17.8,6.9-26.8,10.3-2.2.9-6,1.8-6.7,4.5-.5,2.1.6,5.1,1.6,6.9.5,1,1.3,1.8,2.4,2.1,1.1.3,2.3-.2,3.4-.7,7.4-3.2,14.7-6.5,22.1-9.6,8.4-3.4,16.9-6.6,25.3-9.9,3.9-1.6,8-2.8,11.9-4.3,2.5-.9,5.1-1.4,5-4.6Z"/>
        <path class="st10" d="M986.5,203.5c.9.3,1.8,0,2.7-.4,5.9-2.6,11.8-5.2,17.8-7.6,6.7-2.7,13.5-5.1,20.2-7.7,3.1-1.2,6.3-2.1,9.5-3.3,2-.7,4-.9,4.2-4.1,0-1,.1-2,.2-3,0-.9,0-1.8,0-2.7-.1-.9-.4-1.8-1-2.3-.9-.9-1.9-.3-2.9,0-1.3.4-2.7.8-4,1.2-.8.2-1.5.5-2.3.8-4.6,1.6-9.2,3.7-13.8,5.6-1.9.8-3.9,1.6-5.8,2.4-7.1,2.7-14.2,5.3-21.4,8-1.8.7-4.7,1.3-5.5,3.9-.6,2.1,0,5.1.6,7,.3,1,.9,1.9,1.7,2.3Z"/>
      </g>
      <g>
        <path class="st12" d="M1065.5,304.5c-6.7,8.7-19.3,11.4-29.2,6.3-3.1-1.6-6.2-4.8-5.5-8.2.3-1.4,1.3-2.6,2.2-3.6,5.6-6.3,22.3-29.1,31.6-25.6,10.8,4.1,5.6,25,.9,31.1Z"/>
        <path class="st19" d="M1035.8,300.2c6.8,5.2,16,2.2,20.8-4.2,4-5.4,3.2-13.3-1.8-17.8-3.7-3.3-8.8-3.5-12.7-.4-5.9,4.6-3.6,9.7-2.1,15.9-1,.3-2.1.1-3.1.1-1.1,0-2.2,0-3,.7-2.5,1.9.3,4.5,1.9,5.7Z"/>
      </g>
      <g>
        <path class="st12" d="M788.8,331.4c7.2-8.3,19.9-10.2,29.5-4.5,3,1.8,5.9,5.1,5,8.5-.4,1.4-1.4,2.5-2.4,3.5-6,6-24,27.7-33.1,23.6-10.6-4.8-4.1-25.3,1-31.1Z"/>
        <path class="st19" d="M818.1,337.5c-6.5-5.6-15.8-3.2-21,2.9-4.3,5.1-4,13.1.7,17.9,3.5,3.5,8.6,4,12.6,1.2,6.2-4.3,4.1-9.5,3-15.7,1-.2,2.1,0,3.1,0,1,0,2.2,0,3-.6,2.6-1.8,0-4.5-1.5-5.8Z"/>
      </g>
    </g>
  </g>
</svg>